<svg width="48" height="48" viewBox="0 0 48 48" fill="none" xmlns="http://www.w3.org/2000/svg">
<rect width="48" height="48" rx="8" fill="#EFF2F6"/>
<g clip-path="url(#clip0_4076_763)">
<path d="M37.8758 36.6497C37.1027 35.5374 36.3282 34.4263 35.5521 33.3166C33.8464 30.8832 32.1395 28.4502 30.4312 26.0177C29.5156 24.7106 28.6176 23.3909 27.6844 22.0971C27.4816 21.8154 27.5026 21.6765 27.7301 21.4379C28.6405 20.4844 29.528 19.5109 30.4214 18.5401C31.664 17.1898 32.9051 15.8386 34.1446 14.4866C35.1182 13.4269 36.0914 12.3666 37.0641 11.3056C37.1243 11.2392 37.2551 11.1813 37.1904 11.0664C37.1452 10.9866 37.0301 11.0199 36.9458 11.0199C36.0086 11.0199 35.0707 11.0245 34.1335 11.0132C33.8595 11.0099 33.6672 11.1096 33.4795 11.3129C31.7713 13.1864 30.0571 15.0567 28.3371 16.924C27.6687 17.6549 26.9957 18.3779 26.3378 19.1168C25.9552 19.5468 25.8917 19.5508 25.5687 19.0896C23.754 16.5029 21.9389 13.9171 20.1234 11.3322C20.0572 11.2257 19.9639 11.1395 19.8534 11.0826C19.7428 11.0257 19.6192 11.0004 19.4955 11.0092C17.9782 11.0199 16.4662 11.0146 14.9509 11.0146C13.4466 11.0146 11.9424 11.0146 10.4382 11.0146C10.2943 11.0199 10.0962 10.9415 10.0164 11.0956C9.94377 11.2345 10.119 11.3448 10.1956 11.4584C10.4192 11.7973 10.6573 12.1296 10.8914 12.4618C12.9058 15.3245 14.9203 18.1872 16.9351 21.0499C17.9628 22.5078 18.9937 23.9628 20.0279 25.415C20.213 25.6735 20.1953 25.8655 19.973 26.0795C19.7271 26.3141 19.4916 26.5613 19.2614 26.8105C17.6447 28.5771 16.0289 30.3447 14.4139 32.1132C13.0017 33.6517 11.5856 35.1861 10.1655 36.7162C10.1086 36.778 10.002 36.8312 10.0347 36.9282C10.0674 37.0252 10.1871 36.9946 10.2688 36.9946C11.2171 36.9946 12.1654 36.9946 13.1131 36.9986C13.2003 37.0022 13.2871 36.9862 13.3675 36.9518C13.4479 36.9173 13.5198 36.8652 13.5781 36.7993C14.4776 35.8185 15.3775 34.8396 16.2778 33.8628C18.0258 31.9632 19.7726 30.0623 21.5184 28.1601C21.7041 27.9607 21.8408 27.976 21.986 28.1893C22.1528 28.4352 22.3202 28.6804 22.4909 28.9236C24.3012 31.4996 26.1106 34.0766 27.9192 36.6544C28.0787 36.8823 28.2586 36.9999 28.5405 36.9993C31.5925 36.9926 34.6445 36.9895 37.6966 36.99C37.7973 36.99 37.9372 37.0405 37.9889 36.9122C38.0288 36.8139 37.93 36.7288 37.8758 36.6497ZM33.1283 34.3526C33.0852 34.4589 32.9851 34.427 32.9001 34.427H31.3305V34.4157C30.8727 34.4157 30.4148 34.3984 29.957 34.4217C29.6398 34.4376 29.4306 34.328 29.2461 34.0635C27.8871 32.1245 26.5218 30.1903 25.1501 28.2611C23.4392 25.8432 21.7288 23.425 20.0188 21.0067C18.7979 19.279 17.5789 17.5513 16.3615 15.8236C15.9299 15.2135 15.493 14.6075 15.0581 13.9962C14.9927 13.9005 14.8828 13.7968 14.9456 13.6699C15.0084 13.543 15.1529 13.5815 15.2687 13.5815C16.2281 13.5815 17.1876 13.5961 18.1463 13.5815C18.4531 13.5815 18.6532 13.6958 18.8278 13.9443C21.6152 17.9074 24.4056 21.8681 27.1991 25.8263C29.0395 28.4347 30.8812 31.0431 32.7241 33.6515C32.8386 33.8136 32.9452 33.9838 33.057 34.1446C33.1009 34.2077 33.1623 34.2708 33.1283 34.3532V34.3526Z" fill="#6B7FA6"/>
</g>
<defs>
<clipPath id="clip0_4076_763">
<rect width="28" height="26" fill="white" transform="translate(10 11)"/>
</clipPath>
</defs>
</svg>
