<svg width="24" height="24" viewBox="0 0 24 24" fill="none" xmlns="http://www.w3.org/2000/svg">
<path d="M18.6947 5.26183L18.6964 5.26361C20.4725 7.03961 21.45 9.40234 21.45 11.9201C21.45 17.1039 17.2239 21.3301 12.04 21.3301C10.4643 21.3301 8.91648 20.9314 7.53922 20.181L7.36489 20.086L7.17289 20.1365L2.75985 21.2965L3.93243 16.9915L3.98694 16.7913L3.88377 16.6114C3.06674 15.1863 2.63 13.5719 2.63 11.9101C2.63 6.7262 6.85615 2.50006 12.04 2.50006L12.0417 2.50006C13.2785 2.49575 14.5037 2.73773 15.6459 3.2119C16.7882 3.68607 17.8246 4.38293 18.6947 5.26183ZM7.58275 19.4288L7.58575 19.4306C8.93215 20.2257 10.4699 20.6501 12.04 20.6501C16.8542 20.6501 20.7801 16.7381 20.76 11.92C20.764 10.7716 20.5402 9.63378 20.1015 8.57247C19.6627 7.51095 19.0176 6.54705 18.2036 5.73659C16.5597 4.08262 14.3624 3.17006 12.03 3.17006C7.21386 3.17006 3.29 7.09392 3.29 11.9101L3.29 11.9104C3.29121 13.5534 3.75423 15.163 4.62624 16.5554L4.6262 16.5555L4.62986 16.5611L4.70889 16.6836L3.93766 19.5084L3.70957 20.3438L4.5471 20.1236L7.46338 19.3572L7.58275 19.4288ZM9.18375 11.6244L9.18741 11.6309L9.19126 11.6373C9.34472 11.8931 9.86691 12.7594 10.6672 13.4732C11.5382 14.2515 12.3178 14.5846 12.6516 14.7271C12.7001 14.7479 12.7392 14.7646 12.7678 14.778C12.925 14.8588 13.1297 14.9358 13.3588 14.9092C13.6119 14.8799 13.7901 14.7386 13.9106 14.5943C14.0449 14.4404 14.4702 13.9351 14.6799 13.6434C14.6838 13.6447 14.6878 13.6461 14.692 13.6476C14.8621 13.7196 15.5298 14.0448 15.978 14.2632C16.1396 14.3419 16.2727 14.4068 16.3436 14.4408C16.3969 14.4664 16.4469 14.4895 16.489 14.5088C16.4995 14.5137 16.5096 14.5183 16.5191 14.5227C16.5392 14.5321 16.5566 14.5402 16.5717 14.5474C16.5713 14.5744 16.5698 14.606 16.5668 14.642C16.553 14.8062 16.5101 15.0305 16.4199 15.2798L16.4198 15.2798L16.4173 15.2871C16.3743 15.4118 16.1991 15.6118 15.8896 15.8107C15.5934 16.0011 15.2949 16.1134 15.1491 16.1351C14.754 16.1901 14.3003 16.211 13.8133 16.0541L13.8133 16.0541L13.8061 16.0519C13.4567 15.9451 13.0171 15.8017 12.4516 15.5525L12.4481 15.551C10.2211 14.5901 8.70176 12.3792 8.45464 12.0195C8.44315 12.0028 8.43442 11.9901 8.42849 11.9817L8.42433 11.9758L8.42 11.9701L8.41816 11.9676C8.36031 11.8905 8.1311 11.585 7.91578 11.1611C7.69446 10.7255 7.51 10.2074 7.51 9.71006C7.51 8.7803 7.94045 8.30658 8.18484 8.03763C8.20493 8.01553 8.22375 7.99481 8.24098 7.97534C8.36045 7.8473 8.47681 7.83006 8.53 7.83006H8.99642C9.01617 7.83098 9.03469 7.83133 9.04828 7.83151C9.06259 7.85419 9.08284 7.89128 9.10719 7.94931C9.30264 8.43781 9.81093 9.67995 9.88279 9.82367C9.88498 9.82804 9.88682 9.8319 9.88839 9.83529C9.88805 9.83596 9.88772 9.83663 9.88738 9.8373C9.81417 9.98397 9.78874 10.0349 9.72037 10.1147C9.66585 10.1783 9.61745 10.2369 9.57343 10.2903C9.49782 10.3819 9.43511 10.4578 9.37645 10.5165C9.37376 10.5192 9.37084 10.5221 9.3677 10.5252C9.30845 10.5841 9.17199 10.7196 9.10321 10.911C9.01461 11.1575 9.06041 11.4041 9.18375 11.6244ZM16.6549 14.5911C16.6549 14.5911 16.6547 14.591 16.6543 14.5907L16.6549 14.5911ZM9.02501 7.80023C9.02502 7.80018 9.02566 7.80074 9.02687 7.80205C9.0256 7.80093 9.025 7.80028 9.02501 7.80023Z" fill="#3C52A4" stroke="#3C52A4"/>
</svg>
