<svg width="48" height="48" viewBox="0 0 48 48" fill="none" xmlns="http://www.w3.org/2000/svg">
<path d="M33.8 38.02C33.18 38.02 32.56 37.84 32.02 37.48L30.1 36.22C29.56 35.86 29.3 35.1801 29.48 34.5601C29.62 34.1001 29.68 33.56 29.68 32.96V24.8199C29.68 21.5599 27.64 19.52 24.38 19.52H10.8C10.56 19.52 10.34 19.5401 10.12 19.5601C9.7 19.5801 9.30001 19.44 8.98001 19.16C8.66001 18.88 8.5 18.4801 8.5 18.0601V12.52C8.5 6.64002 12.62 2.52002 18.5 2.52002H35.5C41.38 2.52002 45.5 6.64002 45.5 12.52V22.72C45.5 25.62 44.52 28.1799 42.72 29.9399C41.28 31.3999 39.28 32.34 37 32.62V34.84C37 36.04 36.34 37.1201 35.3 37.6801C34.82 37.9001 34.3 38.02 33.8 38.02ZM32.6 34.26L33.9 35C34.02 34.94 34.02 34.8399 34.02 34.8199V31.2C34.02 30.38 34.7 29.7 35.52 29.7C37.62 29.7 39.4 29.04 40.62 27.8C41.88 26.56 42.52 24.8 42.52 22.7V12.5C42.52 8.24 39.78 5.5 35.52 5.5H18.52C14.26 5.5 11.52 8.24 11.52 12.5V16.5H24.4C29.28 16.5 32.7 19.92 32.7 24.8V32.9399C32.68 33.3999 32.66 33.84 32.6 34.26Z" fill="#687DCA"/>
<path d="M12.14 45.5C11.7 45.5 11.24 45.4001 10.82 45.1801C9.88001 44.6801 9.29999 43.72 9.29999 42.64V41.12C7.53999 40.84 5.98001 40.0999 4.82001 38.9399C3.30001 37.4199 2.5 35.3399 2.5 32.9399V24.8C2.5 20.28 5.45999 16.96 9.85999 16.54C10.18 16.52 10.48 16.5 10.8 16.5H24.38C29.26 16.5 32.68 19.92 32.68 24.8V32.9399C32.68 33.8199 32.58 34.64 32.36 35.38C31.46 38.98 28.4 41.24 24.38 41.24H19.4L13.74 45C13.26 45.34 12.7 45.5 12.14 45.5ZM10.8 19.5C10.56 19.5 10.34 19.52 10.12 19.54C7.24 19.8 5.5 21.78 5.5 24.8V32.9399C5.5 34.5399 6 35.8799 6.94 36.8199C7.86 37.7399 9.19999 38.24 10.8 38.24C11.62 38.24 12.3 38.92 12.3 39.74V42.36L18.1 38.5C18.34 38.34 18.64 38.24 18.94 38.24H24.38C27.02 38.24 28.88 36.92 29.46 34.6C29.6 34.1 29.68 33.5399 29.68 32.9399V24.8C29.68 21.54 27.64 19.5 24.38 19.5H10.8Z" fill="#687DCA"/>
</svg>
