<svg width="48" height="48" viewBox="0 0 48 48" fill="none" xmlns="http://www.w3.org/2000/svg">
<path d="M30.0003 45.5H18.0003C15.3603 45.5 13.1603 45.2401 11.3003 44.6801C10.6203 44.4801 10.1803 43.82 10.2203 43.12C10.7203 37.14 16.7803 32.4399 24.0003 32.4399C31.2203 32.4399 37.2603 37.12 37.7803 43.12C37.8403 43.84 37.4003 44.4801 36.7003 44.6801C34.8403 45.2401 32.6403 45.5 30.0003 45.5ZM13.4403 42.12C14.7603 42.38 16.2603 42.5 18.0003 42.5H30.0003C31.7403 42.5 33.2403 42.38 34.5603 42.12C33.5003 38.28 29.1203 35.4399 24.0003 35.4399C18.8803 35.4399 14.5003 38.28 13.4403 42.12Z" fill="#687DCA"/>
<path d="M30 4H18C8 4 4 8 4 18V30C4 37.56 6.28 41.7 11.72 43.24C12.16 38.04 17.5 33.9399 24 33.9399C30.5 33.9399 35.84 38.04 36.28 43.24C41.72 41.7 44 37.56 44 30V18C44 8 40 4 30 4ZM24 28.34C20.04 28.34 16.84 25.12 16.84 21.16C16.84 17.2 20.04 14 24 14C27.96 14 31.16 17.2 31.16 21.16C31.16 25.12 27.96 28.34 24 28.34Z" stroke="#687DCA" stroke-width="3" stroke-linecap="round" stroke-linejoin="round"/>
<path d="M23.9998 29.84C19.2198 29.84 15.3398 25.94 15.3398 21.16C15.3398 16.38 19.2198 12.5 23.9998 12.5C28.7798 12.5 32.6599 16.38 32.6599 21.16C32.6599 25.94 28.7798 29.84 23.9998 29.84ZM23.9998 15.5C20.8798 15.5 18.3398 18.04 18.3398 21.16C18.3398 24.3 20.8798 26.84 23.9998 26.84C27.1198 26.84 29.6599 24.3 29.6599 21.16C29.6599 18.04 27.1198 15.5 23.9998 15.5Z" fill="#687DCA"/>
</svg>
