<svg width="48" height="48" viewBox="0 0 48 48" fill="none" xmlns="http://www.w3.org/2000/svg">
<path d="M35.12 35.94H12.88C4.92 35.94 2.5 33.52 2.5 25.56V12.88C2.5 4.92 4.92 2.5 12.88 2.5H16C16.82 2.5 17.5 3.18 17.5 4C17.5 4.82 16.82 5.5 16 5.5H12.88C6.6 5.5 5.5 6.6 5.5 12.88V25.54C5.5 31.82 6.6 32.92 12.88 32.92H35.1C41.38 32.92 42.48 31.82 42.48 25.54V23.76C42.48 22.94 43.16 22.26 43.98 22.26C44.8 22.26 45.48 22.94 45.48 23.76V25.54C45.5 33.52 43.08 35.94 35.12 35.94Z" fill="#687DCA"/>
<path d="M24 45.4999C23.18 45.4999 22.5 44.8199 22.5 43.9999V34.4399C22.5 33.6199 23.18 32.9399 24 32.9399C24.82 32.9399 25.5 33.6199 25.5 34.4399V43.9999C25.5 44.8199 24.82 45.4999 24 45.4999Z" fill="#687DCA"/>
<path d="M44 27.5H4C3.18 27.5 2.5 26.82 2.5 26C2.5 25.18 3.18 24.5 4 24.5H44C44.82 24.5 45.5 25.18 45.5 26C45.5 26.82 44.82 27.5 44 27.5Z" fill="#687DCA"/>
<path d="M33 45.5H15C14.18 45.5 13.5 44.82 13.5 44C13.5 43.18 14.18 42.5 15 42.5H33C33.82 42.5 34.5 43.18 34.5 44C34.5 44.82 33.82 45.5 33 45.5Z" fill="#687DCA"/>
<path d="M35.72 20.24H26.2C23.06 20.24 21.02 18.2 21.02 15.06V8.02002C21.02 4.98002 23.48 2.52002 26.52 2.52002H35.72C38.58 2.52002 40.9 4.84002 40.9 7.70002V15.06C40.9 17.92 38.58 20.24 35.72 20.24ZM26.52 5.52002C25.14 5.52002 24.02 6.64002 24.02 8.02002V15.06C24.02 17.02 25.26 17.24 26.2 17.24H35.72C36.92 17.24 37.9 16.26 37.9 15.06V7.70002C37.9 6.50002 36.92 5.52002 35.72 5.52002H26.52Z" fill="#687DCA"/>
<path d="M42.9 17.7399C42.26 17.7399 41.6 17.5199 40.96 17.0599L38.54 15.3599C38.14 15.0799 37.9 14.6199 37.9 14.1399V8.6199C37.9 8.1399 38.14 7.6799 38.54 7.3999L40.96 5.6999C42 4.9599 43.12 4.8199 44.04 5.2999C44.96 5.7799 45.48 6.7799 45.48 8.0599V14.7199C45.48 15.9999 44.96 16.9999 44.04 17.4799C43.7 17.6599 43.32 17.7399 42.9 17.7399ZM40.9 13.3599L42.5 14.4799V8.2799L40.9 9.3999V13.3599Z" fill="#687DCA"/>
</svg>
