<svg width="48" height="48" viewBox="0 0 48 48" fill="none" xmlns="http://www.w3.org/2000/svg">
<path d="M13.76 37.8002C12.94 37.8002 12.26 37.1202 12.26 36.3002V32.1602C12.26 31.3402 12.94 30.6602 13.76 30.6602C14.58 30.6602 15.26 31.3402 15.26 32.1602V36.3002C15.26 37.1402 14.58 37.8002 13.76 37.8002Z" fill="#687DCA"/>
<path d="M24 37.8C23.18 37.8 22.5 37.12 22.5 36.3V28C22.5 27.18 23.18 26.5 24 26.5C24.82 26.5 25.5 27.18 25.5 28V36.3C25.5 37.14 24.82 37.8 24 37.8Z" fill="#687DCA"/>
<path d="M34.24 37.7999C33.42 37.7999 32.74 37.1199 32.74 36.2999V23.8599C32.74 23.0399 33.42 22.3599 34.24 22.3599C35.06 22.3599 35.74 23.0399 35.74 23.8599V36.2999C35.74 37.1399 35.08 37.7999 34.24 37.7999Z" fill="#687DCA"/>
<path d="M13.76 26.3598C13.08 26.3598 12.48 25.8998 12.3 25.2198C12.1 24.4198 12.58 23.5998 13.4 23.3998C20.76 21.5598 27.24 17.5398 32.18 11.7998L33.1 10.7198C33.64 10.0998 34.58 10.0198 35.22 10.5598C35.84 11.0998 35.92 12.0398 35.38 12.6798L34.46 13.7598C29.12 19.9998 22.08 24.3398 14.12 26.3198C14 26.3598 13.88 26.3598 13.76 26.3598Z" fill="#687DCA"/>
<path d="M34.24 19.0402C33.42 19.0402 32.74 18.3602 32.74 17.5402V13.2002H28.38C27.56 13.2002 26.88 12.5202 26.88 11.7002C26.88 10.8802 27.56 10.2002 28.38 10.2002H34.24C35.06 10.2002 35.74 10.8802 35.74 11.7002V17.5602C35.74 18.3802 35.08 19.0402 34.24 19.0402Z" fill="#687DCA"/>
<path d="M30 45.5H18C7.14 45.5 2.5 40.86 2.5 30V18C2.5 7.14 7.14 2.5 18 2.5H30C40.86 2.5 45.5 7.14 45.5 18V30C45.5 40.86 40.86 45.5 30 45.5ZM18 5.5C8.78 5.5 5.5 8.78 5.5 18V30C5.5 39.22 8.78 42.5 18 42.5H30C39.22 42.5 42.5 39.22 42.5 30V18C42.5 8.78 39.22 5.5 30 5.5H18Z" fill="#687DCA"/>
</svg>
